# xmcd
#
# Track frame offsets:
#	300
#	14760
#	26978
#	38485
#	50104
#	60875
#	73194
#	86074
#	102258
#	114893
#	129253
#	141416
#	153687
#	162855
#	176105
#	187566
#	200426
#	212044
#	224256
#	234814
#	245263
#	258670
#	271297
#	285040
#	296969
#
# Disc length: 4113 seconds
#
# Revision: 0
# Processed by: cddbd v1.5.1PL2 Copyright (c) Steve Scherf et al.
# Submitted via: dBpowerAMP V4.0
#
DISCID=6f100d19
DTITLE=Ray Charles - Voix de toujours Ray Charles Aux sources du Blues
DYEAR=2005
DGENRE=Blues
TTITLE0=Kiss me Baby
TTITLE1=Mess around
TTITLE2=Confession Blues
TTITLE3=What have I done
TTITLE4=The Ego song
TTITLE5=I've had my fun
TTITLE6=Lonely boy
TTITLE7=Baby, let me hear you call my name
TTITLE8=Rockin' chair blues
TTITLE9=Someday
TTITLE10=I love you, I love you
TTITLE11=Honey, Honey
TTITLE12=All to myself
TTITLE13=Baby, won't you please come home
TTITLE14=She's on the ball
TTITLE15=Can anyone ask for me
TTITLE16=Guitar blues
TTITLE17=I'm glad for your sake
TTITLE18=Hey now
TTITLE19=Sittin' on top of the world
TTITLE20=Alone in the city
TTITLE21=Jumpin' in the morning
TTITLE22=Baby, let me hold your hand
TTITLE23=Roll with my Baby
TTITLE24=See see Rider
EXTD=Voix de toujours Ray Charles Aux sources du Blues
EXTT0=
EXTT1=
EXTT2=
EXTT3=
EXTT4=
EXTT5=
EXTT6=
EXTT7=
EXTT8=
EXTT9=
EXTT10=
EXTT11=
EXTT12=
EXTT13=
EXTT14=
EXTT15=
EXTT16=
EXTT17=
EXTT18=
EXTT19=
EXTT20=
EXTT21=
EXTT22=
EXTT23=
EXTT24=
PLAYORDER=
